<?xml version="1.0" encoding="UTF-8" standalone="no"?>
<svg width="31px" height="26px" viewBox="0 0 31 26" version="1.1" xmlns="http://www.w3.org/2000/svg" xmlns:xlink="http://www.w3.org/1999/xlink">
    <!-- Generator: Sketch Beta 41 (35299) - http://www.bohemiancoding.com/sketch -->
    <title>twitter [#154]</title>
    <desc>Created with Sketch Beta.</desc>
    <defs></defs>
    <g id="Coming-Soon" stroke="none" stroke-width="1" fill="none" fill-rule="evenodd">
        <g id="Wireframe" transform="translate(-720.000000, -811.000000)" fill="#FFFFFF">
            <path d="M747.77734,818.321375 C747.77734,818.036596 747.77734,817.753417 747.758786,817.471837 C749.000378,816.543906 750.071889,815.39199 750.923841,814.073687 C749.767289,814.604848 748.538067,814.953623 747.281013,815.107211 C748.604553,814.286472 749.595662,812.996967 750.070343,811.475479 C748.824112,812.240222 747.461917,812.779383 746.040967,813.068961 C743.638184,810.425956 739.619631,810.297965 737.063775,812.784182 C735.417081,814.387264 734.716656,816.777488 735.228446,819.057321 C730.127558,818.79174 725.374564,816.299124 722.152299,812.198625 C720.468496,815.198405 721.329725,819.034922 724.117509,820.96118 C723.107846,820.930783 722.119829,820.649203 721.236954,820.140441 L721.236954,820.223635 C721.2385,823.348205 723.367606,826.039207 726.327018,826.658361 C725.393118,826.922342 724.412832,826.960739 723.46347,826.770353 C724.293775,829.445356 726.676457,831.277221 729.390024,831.330017 C727.143407,833.157083 724.367993,834.14901 721.51063,834.14581 C721.006571,834.14421 720.502512,834.113812 720,834.051417 C722.902202,835.977675 726.27754,837 729.725548,836.9952 C741.394659,837 747.77734,826.995936 747.77734,818.321375 Z" id="twitter-[#154]"></path>
        </g>
    </g>
</svg>