<?xml version="1.0" encoding="UTF-8"?>
<svg width="31px" height="25px" viewBox="0 0 31 25" version="1.1" xmlns="http://www.w3.org/2000/svg" xmlns:xlink="http://www.w3.org/1999/xlink">
    <!-- Generator: Sketch 40.1 (33804) - http://www.bohemiancoding.com/sketch -->
    <title>twitter [#154]</title>
    <desc>Created with Sketch.</desc>
    <defs></defs>
    <g id="Main" stroke="none" stroke-width="1" fill="none" fill-rule="evenodd">
        <g id="Wireframe" transform="translate(-470.000000, -7215.000000)" fill="#FFFFFF">
            <g id="Footer" transform="translate(0.000000, 6733.000000)">
                <path d="M479.734524,507 C491.414405,507 497.802976,497.380708 497.802976,489.039783 C497.802976,488.765957 497.802976,488.49367 497.784405,488.22292 C499.027143,487.330678 500.099643,486.223068 500.952381,484.955469 C499.794762,485.4662 498.564405,485.80156 497.30619,485.949242 C498.630952,485.160069 499.622976,483.92016 500.098095,482.457191 C498.850714,483.192521 497.487262,483.710945 496.065,483.989386 C493.66,481.448034 489.637738,481.324967 487.079524,483.71556 C485.43131,485.256985 484.730238,487.555277 485.2425,489.747424 C480.136905,489.492058 475.379524,487.095311 472.154286,483.152524 C470.468929,486.036927 471.330952,489.725887 474.12131,491.578058 C473.110714,491.548829 472.121786,491.27808 471.238095,490.788885 L471.238095,490.86888 C471.239643,493.873274 473.370714,496.460776 476.332857,497.056116 C475.398095,497.309944 474.416905,497.346864 473.466667,497.163801 C474.297738,499.735919 476.682619,501.497328 479.39869,501.548094 C477.15,503.304887 474.372024,504.258663 471.512024,504.255587 C471.0075,504.254048 470.502976,504.22482 470,504.164824 C472.904881,506.016995 476.283333,507 479.734524,506.995385" id="twitter-[#154]"></path>
            </g>
        </g>
    </g>
</svg>