<?xml version="1.0" encoding="UTF-8"?>
<svg width="30px" height="30px" viewBox="0 0 30 30" version="1.1" xmlns="http://www.w3.org/2000/svg" xmlns:xlink="http://www.w3.org/1999/xlink">
    <!-- Generator: Sketch 40.1 (33804) - http://www.bohemiancoding.com/sketch -->
    <title>github [#142]</title>
    <desc>Created with Sketch.</desc>
    <defs></defs>
    <g id="Main" stroke="none" stroke-width="1" fill="none" fill-rule="evenodd">
        <g id="Wireframe" transform="translate(-536.000000, -7212.000000)" fill="#FFFFFF">
            <g id="Footer" transform="translate(0.000000, 6733.000000)">
                <path d="M565.999889,494.379443 C565.999889,501.172918 561.706905,506.935896 555.750427,508.971389 C554.98993,509.122888 554.719931,508.64289 554.719931,508.233392 C554.719931,507.726394 554.737931,506.0704 554.737931,504.012407 C554.737931,502.578413 554.257932,501.642416 553.719434,501.165418 C557.059922,500.784419 560.569909,499.483924 560.569909,493.576946 C560.569909,491.896952 559.987911,490.525957 559.024915,489.448961 C559.180914,489.060463 559.695412,487.495969 558.877915,485.377976 C558.877915,485.377976 557.62092,484.965478 554.75743,486.954471 C553.558935,486.613972 552.27494,486.442972 550.999944,486.436972 C549.724949,486.442972 548.442454,486.613972 547.245458,486.954471 C544.378969,484.965478 543.118974,485.377976 543.118974,485.377976 C542.304477,487.495969 542.818975,489.060463 542.973474,489.448961 C542.014978,490.525957 541.42848,491.896952 541.42848,493.576946 C541.42848,499.468924 544.930967,500.788919 548.262455,501.177418 C547.833456,501.561416 547.444958,502.239414 547.309958,503.23391 C546.454961,503.626909 544.282969,504.306406 542.944974,501.955915 C542.944974,501.955915 542.151477,500.47842 540.645483,500.370421 C540.645483,500.370421 539.182988,500.350921 540.543483,501.304917 C540.543483,501.304917 541.52598,501.777416 542.208477,503.554909 C542.208477,503.554909 543.088974,506.299899 547.261958,505.369902 C547.269458,506.655397 547.282958,507.867393 547.282958,508.233392 C547.282958,508.63989 547.006959,509.115388 546.258462,508.972889 C540.297484,506.940396 536,501.174418 536,494.379443 C536,485.884974 542.716975,479 550.999944,479 C559.284414,479 565.999889,485.884974 565.999889,494.379443 Z" id="github-[#142]"></path>
            </g>
        </g>
    </g>
</svg>