<?xml version="1.0" encoding="UTF-8" standalone="no"?>
<svg width="25px" height="26px" viewBox="0 0 25 26" version="1.1" xmlns="http://www.w3.org/2000/svg" xmlns:xlink="http://www.w3.org/1999/xlink">
    <!-- Generator: Sketch Beta 41 (35299) - http://www.bohemiancoding.com/sketch -->
    <title>instagram [#167]</title>
    <desc>Created with Sketch Beta.</desc>
    <defs></defs>
    <g id="Coming-Soon" stroke="none" stroke-width="1" fill="none" fill-rule="evenodd">
        <g id="Wireframe" transform="translate(-634.000000, -811.000000)" fill="#FFFFFF">
            <path d="M641.15048,811.159545 C639.167374,811.255031 637.44852,811.77246 636.060588,813.247326 C634.667808,814.729934 634.189002,816.571258 634.099302,818.665491 C634.043542,819.972612 633.717469,829.847634 634.662959,832.437359 C635.300559,834.184488 636.556365,835.527739 638.208549,836.210332 C638.979488,836.530338 639.859521,836.747116 641.15048,836.810343 C651.944831,837.331643 655.946196,837.047767 657.633533,832.437359 C657.932938,831.616699 658.139007,830.678617 658.195979,829.304398 C658.689331,817.755796 658.115976,815.252524 656.234692,813.247326 C654.742514,811.658909 652.987295,810.577599 641.15048,811.159545 M641.249877,834.48772 C640.068014,834.430944 639.426778,834.220618 638.998882,834.043841 C637.922478,833.597381 637.113962,832.73801 636.698189,831.596053 C635.978161,829.628275 636.216958,820.282295 636.281203,818.770009 C636.344236,817.288691 636.625459,815.935117 637.60489,814.889937 C638.817057,813.59959 640.383178,812.96732 651.046615,813.480878 C652.438183,813.547976 653.709747,813.847337 654.691603,814.889937 C655.90377,816.180283 656.505005,817.864185 656.015289,829.19988 C655.961954,830.457968 655.764371,831.140561 655.598304,831.596053 C654.501292,834.596109 651.97756,835.012891 641.249877,834.48772 M651.164195,817.096429 C651.164195,817.950639 651.815129,818.644845 652.618796,818.644845 C653.422463,818.644845 654.074609,817.950639 654.074609,817.096429 C654.074609,816.24222 653.422463,815.548013 652.618796,815.548013 C651.815129,815.548013 651.164195,816.24222 651.164195,817.096429 M639.923766,823.984299 C639.923766,827.643722 642.710539,830.610228 646.148246,830.610228 C649.585953,830.610228 652.372726,827.643722 652.372726,823.984299 C652.372726,820.324876 649.585953,817.35966 646.148246,817.35966 C642.710539,817.35966 639.923766,820.324876 639.923766,823.984299 M642.108092,823.984299 C642.108092,821.610061 643.916646,819.683574 646.148246,819.683574 C648.379847,819.683574 650.1884,821.610061 650.1884,823.984299 C650.1884,826.359827 648.379847,828.286314 646.148246,828.286314 C643.916646,828.286314 642.108092,826.359827 642.108092,823.984299" id="instagram-[#167]"></path>
        </g>
    </g>
</svg>